<?xml version="1.0" standalone="no"?>
<!DOCTYPE svg PUBLIC "-//W3C//DTD SVG 20010904//EN"
 "http://www.w3.org/TR/2001/REC-SVG-20010904/DTD/svg10.dtd">
<svg version="1.0" xmlns="http://www.w3.org/2000/svg"
 width="266.000000pt" height="266.000000pt" viewBox="0 0 266.000000 266.000000"
 preserveAspectRatio="xMidYMid meet">
<metadata>
Created by potrace 1.14, written by Peter Selinger 2001-2017
</metadata>
<g transform="translate(0.000000,266.000000) scale(0.100000,-0.100000)"
fill="#000000" stroke="none">
<path d="M2440 2596 c-152 -21 -185 -29 -175 -45 5 -10 -96 -106 -108 -103 -5
2 -6 -2 -3 -6 5 -9 -53 -62 -129 -117 -22 -16 -58 -51 -81 -79 -22 -28 -56
-61 -75 -73 -18 -12 -42 -28 -51 -37 -16 -14 -129 -42 -293 -72 -113 -21 -128
-25 -160 -49 -34 -25 -90 -44 -225 -76 -52 -13 -109 -33 -126 -45 -17 -12 -57
-31 -90 -42 -32 -11 -85 -31 -116 -45 -32 -14 -77 -29 -101 -32 -31 -5 -46
-13 -52 -28 -6 -12 -20 -23 -32 -25 -12 -2 -34 -17 -48 -34 -15 -17 -47 -42
-72 -56 -45 -23 -49 -24 -120 -12 -72 13 -292 9 -356 -6 l-27 -6 0 -297 0
-297 38 -22 c56 -32 120 -97 128 -129 4 -15 13 -37 20 -48 15 -24 48 -307 40
-340 -4 -17 -1 -27 11 -34 15 -8 16 -12 6 -22 -16 -16 -17 -46 -2 -51 9 -3 9
-10 0 -26 -14 -27 -7 -44 16 -35 10 4 14 2 9 -5 -12 -20 15 -24 36 -5 20 18
20 18 13 -15 -7 -32 -6 -34 15 -27 19 6 21 5 11 -13 -17 -32 -14 -35 25 -29
31 5 35 4 29 -11 -15 -38 -8 -52 24 -52 16 0 34 -7 41 -15 6 -8 37 -24 68 -35
32 -12 71 -30 88 -41 20 -12 42 -17 60 -14 16 3 79 7 139 10 197 8 428 25 530
39 166 22 480 132 508 177 7 11 23 19 39 19 20 0 44 15 85 55 31 31 68 58 82
61 28 7 270 164 291 189 7 8 17 15 22 15 5 0 30 14 54 32 34 24 52 49 80 107
19 42 39 84 44 93 7 12 5 17 -7 20 -12 2 -5 14 29 48 25 25 48 57 52 72 5 23
3 26 -17 21 l-22 -5 23 16 c26 20 29 43 5 49 -17 4 -17 5 0 6 10 1 17 10 18
24 0 12 2 31 4 42 6 30 -4 53 -26 60 -14 5 -19 15 -19 45 0 21 -4 42 -10 45
-5 3 -10 19 -10 35 0 16 -5 32 -10 35 -6 4 -9 19 -8 33 2 35 -8 52 -33 52 -22
0 -25 13 -5 29 12 10 11 19 -6 59 -12 26 -27 78 -34 115 l-13 69 60 119 c39
78 62 136 66 169 3 28 10 53 14 56 5 3 9 13 9 22 0 10 12 39 26 66 23 44 25
56 19 105 -4 31 -8 108 -10 171 -3 146 -12 200 -34 199 -9 -1 -86 -11 -171
-23z"/>
</g>
</svg>
